<?xml version="1.0" encoding="utf-8"?>
<!-- Generator: Adobe Illustrator 16.0.0, SVG Export Plug-In . SVG Version: 6.00 Build 0)  -->
<!DOCTYPE svg PUBLIC "-//W3C//DTD SVG 1.1//EN" "http://www.w3.org/Graphics/SVG/1.1/DTD/svg11.dtd">
<svg version="1.1" id="Layer_1" xmlns="http://www.w3.org/2000/svg" xmlns:xlink="http://www.w3.org/1999/xlink" x="0px" y="0px"
	 width="218.689px" height="73.293px" viewBox="0 0 218.689 73.293" enable-background="new 0 0 218.689 73.293"
	 xml:space="preserve">
<g>
	<g>
		<path fill="#FFFFFF" d="M25.798,29.588c0,0.592-0.19,1.172-0.571,1.743c-0.38,0.57-0.973,0.898-1.775,0.982
			c-0.465,0.042-0.993,0.063-1.584,0.063c-0.55,0-1.12-0.063-1.711-0.19c-0.339,0.846-0.708,1.765-1.109,2.757
			c-0.402,0.994-0.835,2.008-1.299,3.042c-0.465,1.036-0.941,2.05-1.426,3.042c-0.486,0.994-0.961,1.913-1.426,2.757
			c-1.606,2.831-3.318,4.247-5.134,4.247c-1.774,0-3.465-1.29-5.071-3.867c-0.38-0.634-0.761-1.395-1.141-2.282
			c-0.38-0.888-0.719-1.753-1.014-2.599c-0.549-1.648-0.961-3.38-1.236-5.197C1.024,32.272,0.781,30.475,0.57,28.7
			c-0.212-0.168-0.359-0.401-0.444-0.697C0.042,27.708,0,27.412,0,27.116c0-0.338,0.032-0.655,0.095-0.951
			c0.063-0.295,0.116-0.549,0.158-0.761c0.168-0.845,0.517-1.479,1.046-1.902c0.528-0.422,1.087-0.612,1.68-0.57
			c0.507,0.042,0.972,0.253,1.395,0.634c0.422,0.38,0.675,0.994,0.761,1.838c0.042,0.719,0.116,1.564,0.222,2.536
			c0.105,0.972,0.232,2.007,0.38,3.106c0.147,1.099,0.338,2.229,0.57,3.391c0.232,1.163,0.517,2.272,0.856,3.328
			c0.168,0.465,0.358,0.973,0.57,1.521c0.211,0.55,0.422,0.994,0.634,1.332c0.295,0.423,0.549,0.75,0.761,0.982
			c0.211,0.232,0.422,0.349,0.634,0.349c0.211-0.042,0.444-0.159,0.697-0.349c0.254-0.19,0.507-0.517,0.761-0.982
			c0.845-1.437,1.68-3.053,2.504-4.849c0.824-1.796,1.553-3.602,2.187-5.419c-0.296-0.211-0.497-0.476-0.602-0.792
			c-0.106-0.317-0.158-0.644-0.158-0.982c0-1.225,0.675-2.113,2.028-2.663c0.802-0.337,1.531-0.337,2.187,0
			c0.655,0.339,1.109,0.824,1.363,1.458c0.38,0.127,0.824,0.19,1.332,0.19c0.507,0,0.971,0,1.394,0
			c0.802-0.127,1.395,0.032,1.775,0.475C25.608,28.479,25.798,28.997,25.798,29.588z"/>
		<path fill="#FFFFFF" d="M61.485,38.589c0.422,0.549,0.58,1.183,0.475,1.901c-0.106,0.719-0.497,1.29-1.172,1.711
			c-1.437,0.803-3.074,1.532-4.913,2.187c-1.838,0.654-3.54,1.066-5.103,1.236c-1.86,0.168-3.286,0.063-4.279-0.317
			c-0.993-0.38-1.849-1.12-2.567-2.219c-0.296-0.38-0.561-0.951-0.792-1.711c-0.232-0.76-0.349-1.436-0.349-2.028
			c-0.042-0.337-0.201-0.539-0.475-0.602c-0.275-0.063-0.582,0.032-0.919,0.285c-0.465,0.296-1.025,0.708-1.68,1.236
			c-0.656,0.529-1.353,1.109-2.092,1.743c-0.74,0.634-1.489,1.289-2.25,1.965c-0.761,0.675-1.479,1.289-2.155,1.838
			c-1.606,1.226-3.106,1.87-4.5,1.934s-2.535-0.307-3.423-1.109c-1.099-0.973-1.648-2.431-1.648-4.374
			c0.042-0.929,0.19-1.848,0.444-2.757c0.253-0.908,0.591-1.785,1.014-2.63c0.634-1.268,1.415-2.514,2.345-3.74
			c0.929-1.225,1.912-2.377,2.947-3.455c1.035-1.077,2.081-2.049,3.138-2.916c1.056-0.866,2.028-1.595,2.916-2.187
			c0.761-0.507,1.626-1.046,2.599-1.616c0.972-0.57,2.018-0.992,3.138-1.268c1.119-0.274,2.292-0.327,3.518-0.159
			c1.225,0.169,2.45,0.761,3.676,1.775c0.549,0.465,0.845,0.973,0.887,1.521c0.042,0.549-0.063,1.057-0.317,1.521
			c-0.338,0.592-0.877,0.982-1.616,1.173c-0.74,0.19-1.448,0.074-2.124-0.349c-0.973-0.761-2.039-1.046-3.201-0.856
			c-1.163,0.19-2.526,0.814-4.088,1.87c-0.761,0.507-1.617,1.172-2.567,1.997s-1.87,1.722-2.757,2.694
			c-0.887,0.973-1.722,1.976-2.504,3.011c-0.782,1.036-1.405,2.04-1.87,3.011c-0.253,0.507-0.423,1.12-0.507,1.838
			c-0.085,0.719,0.042,1.205,0.38,1.458c0.464,0.38,1.141,0.19,2.028-0.57c0.634-0.549,1.426-1.225,2.377-2.028
			c0.951-0.802,1.934-1.617,2.948-2.44c1.014-0.824,2.018-1.617,3.011-2.377c0.992-0.761,1.87-1.373,2.63-1.838
			c0.634-0.38,1.278-0.644,1.934-0.792c0.654-0.147,1.236-0.158,1.743-0.032c0.507,0.127,0.908,0.402,1.204,0.824
			c0.295,0.423,0.444,0.993,0.444,1.711c-0.042,0.846-0.032,1.638,0.032,2.377c0.063,0.74,0.2,1.385,0.412,1.933
			c0.254,0.719,0.603,1.205,1.046,1.458c0.444,0.253,1.024,0.359,1.743,0.317c0.549-0.084,1.183-0.222,1.902-0.412
			c0.718-0.19,1.436-0.412,2.155-0.666c0.718-0.253,1.426-0.517,2.123-0.792c0.697-0.274,1.3-0.539,1.807-0.792
			c0.634-0.295,1.183-0.38,1.648-0.253C60.745,37.955,61.146,38.208,61.485,38.589z"/>
		<path fill="#FFFFFF" d="M80.754,22.914c0.762,0.453,1.193,0.997,1.301,1.635c0.104,0.638,0.01,1.215-0.285,1.73
			c-0.297,0.516-0.73,0.9-1.301,1.154s-1.152,0.19-1.742-0.19c-0.254-0.168-0.529-0.274-0.824-0.317
			c-0.297-0.042-0.592-0.063-0.889-0.063c-0.76,0-1.646,0.169-2.662,0.507c-1.014,0.339-2.039,0.771-3.074,1.299
			c-1.035,0.529-2.059,1.163-3.074,1.902c-1.013,0.74-1.923,1.511-2.725,2.313c-0.634,0.719-1.236,1.564-1.806,2.536
			c-0.571,0.973-0.898,1.817-0.982,2.535c-0.085,0.634,0.052,1.078,0.412,1.331c0.359,0.254,1.003,0.106,1.934-0.443
			c0.591-0.338,1.246-0.718,1.965-1.141c0.717-0.422,1.458-0.834,2.219-1.236c0.76-0.401,1.51-0.761,2.25-1.078
			c0.738-0.317,1.426-0.56,2.061-0.729c0.928-0.211,1.783-0.211,2.566,0c0.781,0.212,1.383,0.719,1.807,1.521
			c0.295,0.549,0.57,1.469,0.824,2.757c0.254,1.289,0.443,2.757,0.57,4.405c0.127,1.648,0.168,3.391,0.127,5.229
			c-0.043,1.838-0.254,3.56-0.635,5.166c-0.592,2.62-1.658,5.124-3.201,7.511c-1.543,2.387-3.666,4.405-6.369,6.054
			c-0.635,0.38-1.291,0.465-1.966,0.254c-0.676-0.212-1.184-0.55-1.521-1.015c-0.339-0.507-0.466-1.057-0.38-1.648
			c0.084-0.592,0.485-1.141,1.204-1.647c2.239-1.395,3.919-2.99,5.04-4.786c1.119-1.797,1.91-3.73,2.377-5.8
			c0.549-2.367,0.738-4.459,0.57-6.275c-0.17-1.817-0.381-3.55-0.635-5.198c-0.084-0.549-0.285-0.887-0.602-1.014
			s-0.709-0.084-1.172,0.127c-0.805,0.338-1.797,0.834-2.98,1.489c-1.184,0.656-2.324,1.279-3.422,1.87
			c-1.226,0.718-2.367,1.151-3.423,1.299c-1.057,0.147-1.987,0.052-2.789-0.285c-0.803-0.339-1.426-0.897-1.87-1.68
			c-0.443-0.782-0.666-1.743-0.666-2.884c0-1.943,0.517-3.813,1.553-5.61c1.035-1.795,2.229-3.433,3.581-4.912
			c0.888-0.929,1.912-1.842,3.074-2.739c1.162-0.895,2.398-1.683,3.708-2.362c1.311-0.679,2.662-1.223,4.057-1.635
			c1.395-0.411,2.748-0.617,4.057-0.617c0.676,0,1.332,0.032,1.967,0.093C79.614,22.39,80.206,22.584,80.754,22.914z"/>
		<path fill="#FFFFFF" d="M120.561,38.589c0.422,0.549,0.581,1.183,0.476,1.901c-0.105,0.719-0.497,1.29-1.173,1.711
			c-1.437,0.803-3.074,1.532-4.912,2.187c-1.838,0.654-3.54,1.066-5.103,1.236c-1.86,0.168-3.286,0.063-4.278-0.317
			c-0.993-0.38-1.85-1.12-2.567-2.219c-0.296-0.38-0.561-0.951-0.792-1.711c-0.233-0.76-0.349-1.436-0.349-2.028
			c-0.043-0.337-0.201-0.539-0.476-0.602c-0.275-0.063-0.581,0.032-0.919,0.285c-0.466,0.296-1.025,0.708-1.68,1.236
			c-0.656,0.529-1.354,1.109-2.092,1.743c-0.74,0.634-1.49,1.289-2.251,1.965c-0.76,0.675-1.479,1.289-2.154,1.838
			c-1.606,1.226-3.106,1.87-4.501,1.934s-2.535-0.307-3.423-1.109c-1.1-0.973-1.647-2.431-1.647-4.374
			c0.041-0.929,0.189-1.848,0.443-2.757c0.254-0.908,0.591-1.785,1.014-2.63c0.634-1.268,1.416-2.514,2.346-3.74
			c0.929-1.225,1.911-2.377,2.947-3.455c1.035-1.077,2.081-2.049,3.138-2.916c1.056-0.866,2.028-1.595,2.916-2.187
			c0.761-0.507,1.626-1.046,2.599-1.616c0.972-0.57,2.018-0.992,3.138-1.268c1.119-0.274,2.292-0.327,3.518-0.159
			c1.226,0.169,2.45,0.761,3.677,1.775c0.549,0.465,0.845,0.973,0.888,1.521c0.041,0.549-0.063,1.057-0.317,1.521
			c-0.339,0.592-0.877,0.982-1.616,1.173c-0.74,0.19-1.448,0.074-2.123-0.349c-0.973-0.761-2.04-1.046-3.201-0.856
			c-1.163,0.19-2.525,0.814-4.089,1.87c-0.761,0.507-1.616,1.172-2.566,1.997c-0.951,0.824-1.87,1.722-2.758,2.694
			c-0.888,0.973-1.723,1.976-2.504,3.011c-0.782,1.036-1.405,2.04-1.87,3.011c-0.253,0.507-0.423,1.12-0.507,1.838
			c-0.085,0.719,0.042,1.205,0.381,1.458c0.464,0.38,1.141,0.19,2.028-0.57c0.634-0.549,1.426-1.225,2.377-2.028
			c0.95-0.802,1.933-1.617,2.947-2.44c1.014-0.824,2.018-1.617,3.011-2.377c0.992-0.761,1.87-1.373,2.631-1.838
			c0.634-0.38,1.277-0.644,1.933-0.792c0.655-0.147,1.236-0.158,1.743-0.032c0.508,0.127,0.908,0.402,1.205,0.824
			c0.295,0.423,0.443,0.993,0.443,1.711c-0.043,0.846-0.032,1.638,0.031,2.377c0.063,0.74,0.2,1.385,0.412,1.933
			c0.254,0.719,0.603,1.205,1.046,1.458c0.444,0.253,1.024,0.359,1.743,0.317c0.549-0.084,1.183-0.222,1.901-0.412
			c0.719-0.19,1.437-0.412,2.155-0.666c0.719-0.253,1.427-0.517,2.124-0.792c0.697-0.274,1.299-0.539,1.807-0.792
			c0.634-0.295,1.182-0.38,1.647-0.253C119.822,37.955,120.223,38.208,120.561,38.589z"/>
		<path fill="#FFFFFF" d="M161.319,39.032c0.042,0.466-0.063,0.919-0.317,1.363c-0.253,0.444-0.655,0.771-1.204,0.982
			c-0.253,0.085-0.518,0.159-0.792,0.222c-0.275,0.063-0.581,0.053-0.919-0.032c-0.846,0.339-1.86,0.729-3.043,1.172
			c-1.184,0.444-2.431,0.962-3.739,1.553c-2.282,0.972-4.448,1.214-6.497,0.729c-2.051-0.486-3.604-1.848-4.659-4.088
			c-0.719-1.479-1.184-2.926-1.395-4.342c-0.212-1.415-0.381-2.588-0.507-3.518c-0.127-0.591-0.486-0.929-1.078-1.014
			c-0.38-0.084-0.813-0.042-1.299,0.126c-0.486,0.169-1.005,0.423-1.554,0.761c-0.423,0.296-0.877,0.666-1.362,1.109
			c-0.486,0.443-1.005,0.909-1.553,1.395c-0.55,0.486-1.109,0.982-1.68,1.489c-0.571,0.507-1.132,0.951-1.681,1.331
			c-0.507,0.38-1.067,0.867-1.68,1.458c-0.612,0.592-1.204,1.205-1.774,1.838s-1.077,1.258-1.521,1.87
			c-0.443,0.612-0.771,1.13-0.982,1.553c-0.47,0.845-1.035,1.331-1.698,1.458c-0.664,0.126-1.296,0.063-1.895-0.19
			c-0.601-0.253-0.997-0.592-1.188-1.014c-0.193-0.423-0.289-0.887-0.289-1.395c0-1.141,0-2.303,0-3.486c0-1.225,0-2.387,0-3.486
			c0-1.099-0.012-2.134-0.032-3.106c-0.021-0.972-0.031-1.796-0.031-2.472c-0.634-0.168-0.951-0.549-0.951-1.141
			c0.084-0.38,0.243-0.855,0.476-1.426c0.231-0.57,0.497-1.024,0.795-1.363c0.214-0.295,0.515-0.496,0.899-0.602
			c0.386-0.105,0.813-0.137,1.285-0.095c0.514,0.042,0.985,0.201,1.413,0.476c0.428,0.275,0.686,0.688,0.771,1.236
			c0.042,0.592,0.085,1.311,0.129,2.155c0.042,0.846,0.064,1.733,0.064,2.662c0,0.888,0,1.775,0,2.662
			c0,0.888-0.022,1.67-0.064,2.346c0.549-0.802,1.246-1.574,2.093-2.314c0.845-0.739,1.647-1.447,2.408-2.123
			c0.888-0.845,1.807-1.69,2.758-2.536c0.95-0.845,1.848-1.563,2.693-2.155c0.929-0.718,1.975-1.289,3.138-1.711
			c1.162-0.422,2.25-0.612,3.265-0.57c1.225-0.042,2.281,0.296,3.169,1.014c0.888,0.719,1.437,1.817,1.648,3.296
			c0.211,1.648,0.443,3.106,0.697,4.374c0.253,1.268,0.57,2.324,0.95,3.169c0.465,1.014,1.162,1.575,2.092,1.68
			c0.93,0.106,1.859-0.031,2.789-0.412c1.353-0.549,2.831-1.151,4.438-1.807c1.605-0.655,3.063-1.13,4.373-1.426
			c0.972-0.211,1.712-0.073,2.219,0.412C161.001,37.585,161.276,38.23,161.319,39.032z"/>
		<path fill="#FFFFFF" d="M186.673,34.342c0.084,1.184-0.158,2.082-0.729,2.694c-0.57,0.613-1.216,0.919-1.934,0.919
			c-0.507,0-1.004-0.126-1.489-0.38c-0.486-0.253-0.878-0.675-1.173-1.268c-0.466-0.718-1.004-1.468-1.616-2.25
			c-0.613-0.782-1.29-1.49-2.028-2.124c-0.74-0.634-1.532-1.141-2.377-1.521c-0.846-0.38-1.69-0.57-2.536-0.57
			c-0.76,0-1.606,0.159-2.535,0.476c-0.93,0.317-1.86,0.729-2.789,1.236c-0.93,0.507-1.838,1.1-2.726,1.775
			c-0.888,0.676-1.67,1.353-2.345,2.028c-0.466,0.465-0.804,0.951-1.015,1.458c-0.212,0.507-0.317,0.951-0.317,1.331
			c0.042,0.676,0.381,1.29,1.015,1.838c0.634,0.55,1.563,0.994,2.789,1.332c0.676,0.212,1.563,0.391,2.662,0.539
			c1.099,0.148,2.323,0.212,3.677,0.19c1.352-0.021,2.767-0.126,4.247-0.317c1.479-0.19,2.957-0.539,4.437-1.046
			c0.676-0.211,1.277-0.168,1.807,0.127c0.527,0.296,0.919,0.719,1.173,1.268c0.211,0.592,0.211,1.184,0,1.775
			c-0.212,0.591-0.804,1.056-1.775,1.395c-1.733,0.591-3.444,0.993-5.134,1.205c-1.69,0.211-3.318,0.317-4.881,0.317
			c-1.521,0-2.916-0.074-4.184-0.222c-1.268-0.148-2.346-0.328-3.232-0.539c-2.578-0.634-4.532-1.627-5.863-2.979
			c-1.331-1.352-2.019-2.894-2.061-4.627c-0.085-1.859,0.781-3.761,2.599-5.705c0.803-0.888,1.785-1.775,2.948-2.663
			c1.161-0.887,2.397-1.7,3.708-2.44c1.31-0.739,2.651-1.352,4.024-1.838c1.373-0.485,2.673-0.729,3.898-0.729
			c1.015,0,1.923,0.117,2.726,0.349c0.803,0.233,1.553,0.539,2.25,0.919s1.332,0.803,1.902,1.268
			c0.57,0.465,1.109,0.909,1.616,1.331c-0.17-2.155-0.359-4.405-0.57-6.751c-0.212-2.345-0.435-4.659-0.666-6.94
			c-0.232-2.282-0.476-4.469-0.729-6.561c-0.254-2.092-0.508-3.962-0.761-5.61c-0.17-0.845-0.032-1.531,0.412-2.06
			c0.443-0.528,0.96-0.834,1.553-0.919c0.591-0.127,1.173-0.01,1.743,0.349c0.57,0.359,0.919,1.004,1.046,1.933
			c0.254,1.86,0.549,4.142,0.888,6.846c0.337,2.705,0.665,5.537,0.982,8.494c0.316,2.958,0.591,5.906,0.823,8.843
			C186.367,29.451,186.546,32.06,186.673,34.342z"/>
		<path fill="#FFFFFF" d="M218.684,30.32c0,0.343-0.086,0.685-0.254,1.028c-0.169,0.343-0.423,0.6-0.761,0.771
			c-0.719,0.214-1.67,0.321-2.853,0.321c0.254,0.339,0.496,0.803,0.729,1.395c0.231,0.592,0.358,1.268,0.38,2.028
			c0.021,0.761-0.105,1.585-0.38,2.472c-0.275,0.888-0.793,1.775-1.554,2.662c-2.324,2.748-4.859,4.732-7.605,5.958
			c-1.184,0.549-2.431,0.929-3.74,1.141c-1.311,0.211-2.705,0.337-4.184,0.38c-3.846,0.084-6.487-1.103-7.923-3.561
			c-1.142-1.992-1.354-4.684-0.634-8.075c0.253-1.271,0.644-2.49,1.172-3.655c0.528-1.166,1.173-2.236,1.934-3.211
			s1.605-1.843,2.535-2.605c0.93-0.761,1.902-1.396,2.916-1.902c0.929-0.465,1.901-0.687,2.916-0.666
			c1.014,0.021,1.943,0.434,2.789,1.236c0.38-0.127,0.802-0.2,1.268-0.222c0.465-0.021,0.865,0.011,1.204,0.095
			c0.718,0.085,1.479,0.307,2.282,0.666c0.802,0.359,1.458,0.771,1.965,1.236h5.261c0.761,0,1.384,0.257,1.87,0.771
			C218.503,29.099,218.725,29.677,218.684,30.32z M210.253,38.113c0.802-0.977,1.046-1.997,0.729-3.06
			c-0.316-1.062-0.961-1.933-1.933-2.614c-0.634,0-1.385,0.011-2.251,0.032c-0.866,0.022-1.68,0.011-2.439-0.032
			c-1.184,0-2.124-0.2-2.821-0.602c-0.697-0.401-0.94-0.919-0.729-1.553c-0.212-0.127-0.435-0.148-0.666-0.063
			c-0.232,0.085-0.518,0.19-0.855,0.317c-0.888,0.592-1.817,1.545-2.789,2.86c-0.973,1.315-1.585,2.802-1.838,4.459
			c-0.381,2.04-0.254,3.528,0.38,4.461c0.676,1.021,1.796,1.53,3.359,1.53c1.226,0.042,2.335-0.032,3.328-0.223
			c0.992-0.191,1.87-0.457,2.631-0.797c1.098-0.467,2.154-1.126,3.169-1.976C208.542,40.004,209.45,39.091,210.253,38.113z"/>
	</g>
	<g>
		<path fill="#FFFFFF" d="M135.236,72.193c0-0.081,0.026-0.135,0.054-0.215l5.473-17.839c0.16-0.536,0.777-0.778,1.395-0.778
			s1.233,0.268,1.395,0.778l5.473,17.839c0,0.08,0.026,0.134,0.026,0.188c0,0.537-0.751,0.966-1.395,0.966
			c-0.376,0-0.697-0.161-0.805-0.51l-1.181-3.997h-7.055l-1.181,3.997c-0.106,0.349-0.429,0.51-0.831,0.51
			C136.014,73.132,135.236,72.756,135.236,72.193z M145.134,66.774l-2.978-10.086l-3.031,10.086H145.134z"/>
		<path fill="#FFFFFF" d="M167.375,72.112l-6.975-13.493v13.708c0,0.536-0.563,0.805-1.127,0.805s-1.127-0.269-1.127-0.805V54.301
			c0-0.563,0.537-0.778,1.127-0.778c0.805,0,1.234,0.483,1.717,1.421l6.68,13.063V54.301c0-0.537,0.563-0.778,1.126-0.778
			c0.563,0,1.127,0.241,1.127,0.778v18.026c0,0.536-0.563,0.805-1.127,0.805C168.18,73.132,167.697,72.703,167.375,72.112z"/>
		<path fill="#FFFFFF" d="M186.208,53.523c3.246,0,5.794,1.583,5.794,5.848v7.914c0,4.265-2.548,5.848-5.794,5.848h-4.748
			c-0.617,0-1.02-0.376-1.02-0.778V54.301c0-0.402,0.402-0.778,1.02-0.778H186.208z M182.695,55.562v15.531h3.514
			c2.2,0,3.541-1.207,3.541-3.809v-7.914c0-2.602-1.341-3.809-3.541-3.809H182.695z"/>
		<path fill="#FFFFFF" d="M202.145,67.445v-8.075c0-4.265,2.521-5.848,5.768-5.848s5.794,1.583,5.794,5.848v8.075
			c0,4.265-2.548,5.848-5.794,5.848S202.145,71.71,202.145,67.445z M211.454,59.371c0-2.602-1.342-3.809-3.541-3.809
			c-2.2,0-3.515,1.207-3.515,3.809v8.075c0,2.602,1.314,3.809,3.515,3.809c2.199,0,3.541-1.207,3.541-3.809V59.371z"/>
	</g>
</g>
</svg>
